<svg width="69" height="21" viewBox="0 0 69 21" fill="none" xmlns="http://www.w3.org/2000/svg">
<path fill-rule="evenodd" clip-rule="evenodd" d="M17.3968 16.3699C17.2009 17.0714 16.9214 17.4359 16.0197 17.6376C14.0227 18.007 12.0256 18.102 10.0284 18.1019C8.03146 18.102 6.03437 18.007 4.03729 17.6376C3.13582 17.4359 2.85618 17.0714 2.66022 16.37C2.2652 14.4055 2.16412 12.4408 2.16455 10.4762C2.16402 8.51161 2.2652 6.54702 2.66032 4.58243C2.85618 3.88085 3.13582 3.51635 4.0374 3.31466C6.03448 2.94541 8.03146 2.85036 10.0285 2.85036C12.0257 2.85025 14.0228 2.94541 16.0198 3.31466C16.9215 3.51635 17.2009 3.88106 17.3969 4.58243C17.7921 6.54702 17.8931 8.51161 17.8926 10.4762C17.8932 12.4408 17.7921 14.4055 17.3968 16.3699ZM20.0571 10.4674H20.0568C20.0558 8.38315 19.8647 6.29868 19.4783 4.21442C19.2354 2.83681 18.1165 1.63575 16.5733 1.32918C14.3965 0.944929 12.2197 0.754407 10.0428 0.752752V0.752441C10.0379 0.752441 10.0332 0.752545 10.0284 0.752545C10.0237 0.752545 10.019 0.752441 10.0143 0.752441V0.752752C7.83763 0.754407 5.66059 0.944825 3.48377 1.32918C1.94062 1.63575 0.821632 2.83691 0.578814 4.21442C0.192333 6.29868 0.0012808 8.38315 0.000320199 10.4674H0C0 10.4703 0.000106733 10.4733 0.000106733 10.4762C0.000106733 10.4791 0 10.4822 0 10.485H0.000320199C0.0012808 12.5693 0.192333 14.6537 0.578814 16.738C0.821632 18.1154 1.94062 19.3166 3.48377 19.6233C5.66059 20.0074 7.83742 20.198 10.0143 20.1998V20.1999C10.019 20.1999 10.0237 20.1999 10.0284 20.1999C10.0333 20.1997 10.038 20.2 10.0428 20.2V20.1994C12.2197 20.198 14.3965 20.0075 16.5733 19.6232C18.1165 19.3164 19.2356 18.1153 19.4783 16.7379C19.8647 14.6534 20.0558 12.5691 20.0568 10.4849H20.0571C20.0571 10.4819 20.057 10.479 20.057 10.4761C20.0571 10.4732 20.0571 10.4703 20.0571 10.4674Z" fill="black" fill-opacity="0.1"/>
<path fill-rule="evenodd" clip-rule="evenodd" d="M15.1258 13.7211L11.8113 10.4852L13.298 9.03367C13.4104 8.95506 13.5091 8.8598 13.5887 8.74975L14.8277 7.54021C15.1395 7.2506 15.3869 6.95892 15.3869 6.54023C15.3869 5.88012 14.8347 5.34517 14.1538 5.34517C13.7662 5.34517 13.4505 5.5329 13.1899 5.76573L13.1824 5.77721L11.6135 7.30863L11.6078 7.30304L10.0799 8.79484L8.5521 7.30314L8.54612 7.30873L6.97767 5.77731L6.96999 5.77049C6.66516 5.49008 6.39374 5.34517 6.00608 5.34517C5.32513 5.34517 4.7731 5.88012 4.7731 6.54023C4.7731 6.95892 5.04506 7.24098 5.33217 7.54021L6.57113 8.74975C6.65075 8.85969 6.74948 8.95506 6.86198 9.03367L8.34856 10.4852L5.03417 13.7211L5.03182 13.7144C4.86062 13.9196 4.77246 14.1997 4.77246 14.4841C4.77246 15.144 5.32448 15.6792 6.00555 15.6792C6.4407 15.679 6.75812 15.4412 7.04171 15.1304L8.22848 13.9717C8.38367 13.878 8.51719 13.7536 8.61624 13.6046L10.0799 12.1756L11.5436 13.6046C11.6428 13.7537 11.7762 13.878 11.9314 13.9719L13.1182 15.1305C13.3919 15.3935 13.7193 15.6793 14.1544 15.6793C14.8354 15.6791 15.3875 15.1442 15.3875 14.4842C15.3875 14.1998 15.3041 13.9292 15.1328 13.7241L15.1258 13.7211ZM68.9771 14.9728C68.9616 14.8559 68.9383 14.7616 68.9074 14.6894C68.8765 14.6177 68.8378 14.5652 68.7912 14.5321C68.7448 14.4991 68.6941 14.4826 68.6381 14.4826H63.5249V11.1989H67.9421C67.9979 11.1989 68.0488 11.184 68.0952 11.1539C68.1418 11.124 68.1803 11.0746 68.2113 11.0055C68.2424 10.9365 68.2656 10.8451 68.2809 10.731C68.2964 10.6171 68.3043 10.4732 68.3043 10.2992C68.3043 10.1313 68.2965 9.98886 68.2809 9.87188C68.2656 9.7548 68.2422 9.66202 68.2113 9.59303C68.1805 9.52404 68.1415 9.47305 68.0952 9.43995C68.0488 9.40695 67.9979 9.39061 67.9421 9.39061H63.5249V6.54788H68.601C68.6569 6.54788 68.7061 6.53144 68.7498 6.49855C68.7929 6.46555 68.8299 6.41301 68.8609 6.34102C68.892 6.26903 68.9151 6.1746 68.9305 6.05761C68.946 5.94063 68.9539 5.79831 68.9539 5.63034C68.9539 5.45036 68.9461 5.30194 68.9305 5.18496C68.9151 5.06787 68.892 4.9722 68.8609 4.897C68.8301 4.82212 68.7929 4.76968 68.7498 4.73968C68.7061 4.70958 68.6569 4.69458 68.601 4.69458H61.8169C61.6129 4.69458 61.4408 4.75323 61.3015 4.87021C61.1623 4.98709 61.0927 5.17761 61.0927 5.44137V15.5892C61.0927 15.8532 61.1623 16.0435 61.3015 16.1605C61.4408 16.2774 61.6128 16.3359 61.8169 16.3359H68.6381C68.694 16.3359 68.7448 16.3195 68.7912 16.2863C68.8378 16.2535 68.8765 16.2008 68.9074 16.1288C68.9384 16.057 68.9616 15.9625 68.9771 15.8455C68.9926 15.7284 69.0002 15.5832 69.0002 15.4091C69.0003 15.2354 68.9926 15.0898 68.9771 14.9728ZM57.1388 5.59362C57.0575 5.51201 56.9149 5.41592 56.7103 5.30525C56.5056 5.19447 56.2486 5.09114 55.9388 4.99516C55.6293 4.89897 55.2672 4.81726 54.8524 4.75034C54.4372 4.68341 53.9777 4.6499 53.4724 4.6499C52.5523 4.6499 51.7185 4.78674 50.9699 5.06053C50.2214 5.33452 49.582 5.72911 49.0536 6.24472C48.5244 6.76033 48.1153 7.38672 47.8267 8.12377C47.538 8.86083 47.3937 9.69253 47.3937 10.6191C47.3938 11.5162 47.5292 12.3188 47.7996 13.0267C48.0706 13.7348 48.4608 14.3349 48.9723 14.8271C49.4832 15.3195 50.1068 15.6954 50.8433 15.9545C51.5798 16.2138 52.4142 16.3435 53.3464 16.3435C53.6649 16.3435 53.9821 16.3289 54.2979 16.2998C54.6135 16.2706 54.9259 16.2269 55.2356 16.1687C55.5453 16.1106 55.8444 16.0407 56.133 15.959C56.4215 15.8774 56.6637 15.7987 56.859 15.7229C57.0541 15.6473 57.1835 15.5439 57.2471 15.4128C57.31 15.2816 57.3415 15.1287 57.3415 14.954V10.3004C57.3415 10.1837 57.3261 10.0803 57.2962 9.9901C57.2664 9.8997 57.2227 9.82254 57.1656 9.75852C57.1083 9.69439 57.0425 9.6464 56.9672 9.61423C56.892 9.58217 56.8063 9.56624 56.7102 9.56624H52.7691C52.7149 9.56624 52.6667 9.58237 52.6247 9.61423C52.5827 9.6464 52.5461 9.69594 52.5162 9.76297C52.4865 9.82989 52.4637 9.91884 52.4488 10.0295C52.4339 10.1401 52.426 10.2771 52.426 10.4401C52.4262 10.7547 52.456 10.9777 52.5161 11.1087C52.5764 11.2398 52.6604 11.3053 52.769 11.3053H54.9784V14.0798C54.7561 14.1965 54.5156 14.284 54.2567 14.3421C53.9985 14.4002 53.737 14.4294 53.4721 14.4294C52.9314 14.4294 52.4365 14.345 51.9887 14.1759C51.5409 14.007 51.1576 13.7564 50.8386 13.4244C50.5201 13.0922 50.2718 12.6802 50.0949 12.1876C49.9175 11.6954 49.8285 11.1258 49.8285 10.4791C49.8285 9.8906 49.9158 9.35307 50.0899 8.86662C50.2646 8.38008 50.514 7.96356 50.8386 7.61675C51.1638 7.27015 51.554 7.00205 52.0113 6.81267C52.4682 6.62339 52.9789 6.52864 53.5446 6.52864C54.0733 6.52864 54.5381 6.58108 54.9379 6.68596C55.3377 6.79084 55.6816 6.90452 55.9701 7.02677C56.2588 7.14924 56.4904 7.2628 56.6646 7.36758C56.8394 7.47246 56.9654 7.5249 57.0439 7.5249C57.0976 7.5249 57.1441 7.51042 57.1833 7.48136C57.2226 7.45219 57.2556 7.4013 57.2827 7.32828C57.3098 7.25556 57.3309 7.15793 57.3457 7.03556C57.3607 6.9131 57.3684 6.76768 57.3684 6.59856C57.3684 6.3073 57.3503 6.0872 57.3142 5.93867C57.2787 5.79014 57.2201 5.67533 57.1388 5.59362ZM37.8065 11.8639L39.4922 6.95282H39.5016L41.188 11.8639H37.8065ZM41.2891 5.18475C41.2521 5.0718 41.2079 4.98244 41.1554 4.91696C41.1034 4.85139 41.0172 4.80226 40.8978 4.76968C40.7777 4.73689 40.6101 4.7161 40.3952 4.7071C40.1801 4.6981 39.8915 4.69376 39.5293 4.69376C39.2158 4.69365 38.9642 4.69821 38.7735 4.7071C38.5832 4.7161 38.434 4.73689 38.3267 4.76968C38.2195 4.80236 38.141 4.85004 38.0918 4.91241C38.0426 4.97489 37.9995 5.0568 37.963 5.15796L34.2862 15.4088C34.2126 15.6173 34.1666 15.784 34.1478 15.9089C34.1296 16.034 34.1512 16.1309 34.2125 16.1991C34.2739 16.2676 34.3844 16.3107 34.5443 16.3285C34.7042 16.3464 34.9253 16.3554 35.2077 16.3554C35.4715 16.3553 35.6855 16.3493 35.8479 16.3375C36.0106 16.3255 36.1366 16.3032 36.2257 16.2705C36.3147 16.2378 36.3794 16.1932 36.4192 16.1366C36.4595 16.0801 36.4915 16.0102 36.5159 15.9267L37.2717 13.6676H41.7496L42.5513 15.9893C42.5757 16.0667 42.6066 16.1293 42.6436 16.1768C42.6808 16.2245 42.7449 16.2616 42.8372 16.2884C42.9291 16.3151 43.0628 16.3331 43.2381 16.3419C43.4129 16.3509 43.6573 16.3554 43.9707 16.3554C44.2715 16.3553 44.5082 16.3479 44.6801 16.3331C44.852 16.3181 44.9715 16.2795 45.0395 16.2169C45.107 16.1546 45.1318 16.0606 45.113 15.9356C45.0949 15.8106 45.0484 15.6409 44.9748 15.4266L41.2891 5.18475ZM30.0762 9.23329C29.9893 9.48835 29.8628 9.70711 29.6952 9.88998C29.5283 10.0731 29.3133 10.2154 29.0505 10.3174C28.7873 10.4192 28.4606 10.4701 28.0708 10.4701H26.4242V6.52078H28.0149C28.2688 6.52078 28.5147 6.53744 28.7531 6.57043C28.9914 6.60343 29.2185 6.68286 29.4353 6.80874C29.6521 6.93461 29.8345 7.12969 29.9833 7.39344C30.132 7.6574 30.2061 7.99345 30.2061 8.40108C30.2062 8.70103 30.1631 8.97843 30.0762 9.23329ZM31.9606 5.94963C31.7007 5.66488 31.3867 5.42937 31.0184 5.2435C30.6502 5.05763 30.2863 4.9302 29.9275 4.86101C29.5688 4.79222 29.2607 4.74723 29.0042 4.72613C28.747 4.70514 28.4762 4.69448 28.1919 4.69448H24.8093C24.5616 4.69448 24.3619 4.76513 24.2106 4.906C24.0586 5.04677 23.9827 5.25839 23.9827 5.54025V16.0119C23.9827 16.0718 24.0015 16.1258 24.0387 16.1738C24.0757 16.2218 24.1409 16.2608 24.2338 16.2908C24.3267 16.3209 24.4516 16.3447 24.6098 16.3628C24.7673 16.3807 24.9637 16.3898 25.1991 16.3898C25.4403 16.3897 25.6387 16.3807 25.7936 16.3628C25.9478 16.3447 26.0716 16.3209 26.1646 16.2908C26.2575 16.2609 26.3238 16.2218 26.364 16.1738C26.4045 16.1258 26.4244 16.0719 26.4244 16.0119V12.2964H27.978C28.7702 12.2964 29.4586 12.2063 30.0437 12.0265C30.6286 11.8464 31.1218 11.5842 31.5243 11.2393C31.9269 10.8945 32.2332 10.4699 32.4431 9.96621C32.6539 9.4626 32.759 8.88369 32.759 8.2301C32.759 7.75638 32.691 7.329 32.5549 6.94806C32.4184 6.56743 32.2205 6.23448 31.9606 5.94963Z" fill="black" fill-opacity="0.1"/>
</svg>
