<svg width="473" height="60" viewBox="0 0 473 60" fill="none" xmlns="http://www.w3.org/2000/svg">
<g opacity="0.2">
<path fill-rule="evenodd" clip-rule="evenodd" d="M27.756 59.1257C19.2516 59.1257 12.501 56.5555 7.49967 51.4152C2.4984 46.2749 0 39.0443 0 29.728C0 20.7392 2.50737 13.5759 7.51762 8.23376C12.5324 2.89159 19.2919 0.218262 27.7963 0.218262C30.057 0.218262 32.0844 0.348329 33.8921 0.599514C35.6907 0.855185 37.4176 1.20954 39.0728 1.66705C40.3691 2.04832 41.7775 2.56863 43.2981 3.228C44.8231 3.88736 46.0521 4.45701 46.9896 4.94144V18.4606H45.5408C44.8545 17.8506 43.9933 17.1194 42.9527 16.2717C41.9121 15.4194 40.7279 14.5896 39.4092 13.7778C38.0905 12.9659 36.6327 12.2707 35.0493 11.701C33.4615 11.1269 31.8063 10.8443 30.0794 10.8443C28.0206 10.8443 26.1367 11.1672 24.4233 11.8131C22.7098 12.4635 21.0771 13.5849 19.5297 15.1862C18.1078 16.635 16.946 18.5907 16.0445 21.0532C15.1429 23.5157 14.6943 26.4223 14.6943 29.7729C14.6943 33.3029 15.1653 36.2678 16.1028 38.6631C17.0402 41.0628 18.2737 42.996 19.7943 44.4717C21.2655 45.8936 22.9117 46.9208 24.7238 47.5577C26.5404 48.1946 28.3481 48.5086 30.1512 48.5086C32.0306 48.5086 33.8203 48.1991 35.5203 47.5756C37.2203 46.9567 38.6556 46.2614 39.8218 45.4989C41.0912 44.7139 42.2081 43.911 43.1725 43.0992C44.1368 42.2873 44.9756 41.5651 45.6843 40.9282H46.9761V54.2545C45.9355 54.7344 44.7289 55.2906 43.3609 55.9096C41.9883 56.5331 40.5799 57.0579 39.1356 57.4885C37.3593 58.0223 35.6952 58.426 34.1477 58.7085C32.6047 58.9866 30.4697 59.1257 27.756 59.1257Z" fill="#B9B9B9"/>
<path fill-rule="evenodd" clip-rule="evenodd" d="M103.233 58.022H88.9917V32.89H69.6056V58.022H55.3643V1.31689H69.6056V22.0711H88.9917V1.31689H103.233V58.022Z" fill="#B9B9B9"/>
<path fill-rule="evenodd" clip-rule="evenodd" d="M114.962 58.022V1.31689H153.309V12.1313H129.127V22.0711H151.402V32.89H129.127V47.2075H153.309V58.022H114.962Z" fill="#B9B9B9"/>
<path fill-rule="evenodd" clip-rule="evenodd" d="M200.796 58.022H162.943V1.31689H177.184V47.2075H200.796V58.022Z" fill="#B9B9B9"/>
<path fill-rule="evenodd" clip-rule="evenodd" d="M267.97 29.6156C267.97 25.8837 267.328 22.6901 266.045 20.0392C264.763 17.3883 262.789 15.3115 260.125 13.8134C258.196 12.7458 256.168 12.1627 254.051 12.0596C251.93 11.9609 249.4 11.9071 246.453 11.9071H246.188V47.3959H246.453C249.651 47.3959 252.351 47.3376 254.545 47.2255C256.743 47.1089 258.828 46.4316 260.811 45.1891C263.148 43.7179 264.924 41.686 266.144 39.0979C267.36 36.5053 267.97 33.343 267.97 29.6156ZM282.592 29.7277C282.592 35.0116 281.435 39.7393 279.125 43.9152C276.815 48.0912 273.895 51.2983 270.365 53.5275C267.418 55.4339 264.215 56.6584 260.748 57.2011C257.281 57.7484 253.594 58.022 249.682 58.022H231.938V1.31689H249.53C253.518 1.31689 257.249 1.57257 260.726 2.07943C264.206 2.58628 267.467 3.81978 270.513 5.77543C274.245 8.16169 277.187 11.3778 279.349 15.4281C281.516 19.4785 282.592 24.242 282.592 29.7277Z" fill="#B9B9B9"/>
<path fill-rule="evenodd" clip-rule="evenodd" d="M340.706 58.022H323.491L308.034 34.9802L305.253 38.8646V58.022H291.012V1.31689H305.253V26.4892L323.379 1.31689H339.867L319.647 27.633L340.706 58.022Z" fill="#B9B9B9"/>
<path fill-rule="evenodd" clip-rule="evenodd" d="M399.196 18.6846C399.196 17.2627 398.923 16.0381 398.375 15.011C397.828 13.9838 396.922 13.1899 395.653 12.6292C394.765 12.2479 393.773 12.0057 392.683 11.9071C391.593 11.8039 390.234 11.7545 388.611 11.7545H383.852V27.023H387.924C389.902 27.023 391.584 26.9019 392.97 26.6597C394.356 26.4175 395.532 25.9061 396.492 25.1167C397.407 24.4035 398.084 23.5558 398.532 22.5645C398.977 21.5777 399.196 20.2814 399.196 18.6846ZM422.121 58.022H404.758L388.956 37.2319H383.852V58.022H369.687V1.31689H392.495C395.644 1.31689 398.384 1.51426 400.721 1.90898C403.058 2.3037 405.216 3.12005 407.194 4.36252C409.226 5.65882 410.836 7.30049 412.029 9.29652C413.222 11.2881 413.819 13.8223 413.819 16.8904C413.819 21.2323 412.841 24.7534 410.885 27.4581C408.93 30.1628 406.319 32.3114 403.04 33.9127L422.121 58.022Z" fill="#B9B9B9"/>
<path fill-rule="evenodd" clip-rule="evenodd" d="M449.236 59.2017C441.62 59.2017 435.762 57.3626 431.662 53.68C427.563 50.002 425.513 44.615 425.513 37.5324V1.31689H439.754V36.6936C439.754 40.6274 440.494 43.5609 441.979 45.4896C443.463 47.4184 445.881 48.3827 449.236 48.3827C452.511 48.3827 454.915 47.4587 456.453 45.6018C457.987 43.7493 458.759 40.7799 458.759 36.6936V1.31689H473V37.4921C473 44.4714 471 49.836 467.003 53.5814C463.002 57.3312 457.081 59.2017 449.236 59.2017Z" fill="#B9B9B9"/>
<path fill-rule="evenodd" clip-rule="evenodd" d="M222.124 50.5359C222.124 54.667 218.773 58.0177 214.642 58.0177C210.511 58.0177 207.161 54.667 207.161 50.5359C207.161 46.4048 210.511 43.0542 214.642 43.0542C218.773 43.0542 222.124 46.4048 222.124 50.5359Z" fill="#B9B9B9"/>
<path fill-rule="evenodd" clip-rule="evenodd" d="M359.859 50.5359C359.859 54.667 356.508 58.0177 352.377 58.0177C348.246 58.0177 344.896 54.667 344.896 50.5359C344.896 46.4048 348.246 43.0542 352.377 43.0542C356.513 43.0542 359.859 46.4048 359.859 50.5359Z" fill="#B9B9B9"/>
</g>
</svg>
