<svg width="17" height="18" viewBox="0 0 17 18" fill="none" xmlns="http://www.w3.org/2000/svg">
<path d="M5.86175 3.01565L5.86149 3.01545C5.59456 3.36251 5.4179 3.99128 5.37008 4.74751C5.32269 5.49684 5.4035 6.34578 5.62759 7.11427C5.80842 7.67644 6.08188 8.20473 6.43679 8.67749L6.44101 8.68312L6.44088 8.68321C6.59359 8.90783 6.95316 9.48808 7.16492 9.89455C7.20698 9.96242 7.23511 10.038 7.24756 10.117C7.26038 10.1982 7.25631 10.2812 7.23567 10.3607C7.21504 10.4403 7.17827 10.5148 7.12761 10.5796C7.07739 10.6438 7.01463 10.6972 6.94315 10.7364L3.4131 12.7811L3.41301 12.7812C3.04091 12.9963 2.72126 13.2909 2.47699 13.6437C2.23271 13.9964 2.06985 14.3986 2.00004 14.8215L1.99991 14.8223L1.8781 15.5363C1.86632 15.6136 1.87076 15.6924 1.89116 15.7679C1.91138 15.8428 1.94685 15.9127 1.99538 15.9733C2.04754 16.0318 2.11136 16.079 2.18283 16.1117C2.25501 16.1447 2.33336 16.1623 2.41283 16.1634H14.6138C14.6933 16.1623 14.7717 16.1447 14.8438 16.1117C14.9153 16.079 14.9791 16.0318 15.0313 15.9733C15.0798 15.9127 15.1153 15.8428 15.1355 15.7679C15.1559 15.6924 15.1604 15.6136 15.1486 15.5363L15.0267 14.8223L15.0266 14.8215C14.9568 14.3986 14.7939 13.9964 14.5497 13.6437C14.3054 13.291 13.9859 12.9965 13.6139 12.7813L5.86175 3.01565ZM5.86175 3.01565L5.86726 3.00742L5.90801 2.94652C6.04538 2.76402 6.24574 2.50023 6.62979 2.27776C7.01652 2.05374 7.60145 1.86524 8.51333 1.86524C9.41578 1.86524 10.0094 2.06705 10.4094 2.30622C10.8057 2.54314 11.0225 2.82246 11.168 3.00987L11.1724 3.01545C11.1724 3.01553 11.1725 3.01561 11.1725 3.01568C11.4391 3.36242 11.6123 3.99064 11.6584 4.74716C11.704 5.49653 11.6232 6.34578 11.4061 7.11486C11.2252 7.6768 10.9518 8.20489 10.5971 8.67749L10.597 8.67743L10.5938 8.68195C10.4612 8.87285 10.1858 9.32078 9.9638 9.69187L9.96374 9.69183L9.96144 9.69595C9.85395 9.88913 9.82463 10.116 9.87956 10.3301C9.93448 10.5442 10.0694 10.7291 10.2566 10.8471L10.2565 10.8472L10.2617 10.8501L13.6137 12.7812L5.86175 3.01565ZM14.6076 17.15L14.6092 17.1428C14.8305 17.1416 15.049 17.0931 15.25 17.0006C15.4561 16.9057 15.6387 16.7669 15.7851 16.5938C15.9315 16.4208 16.0379 16.2178 16.0969 15.9991C16.1558 15.7807 16.1658 15.552 16.1263 15.3292C16.1263 15.3291 16.1263 15.3289 16.1262 15.3287L16.0044 14.6145L16.0043 14.6141C15.9066 14.0499 15.6853 13.5142 15.3563 13.0449C15.0273 12.5756 14.5986 12.1844 14.1007 11.8989L14.1007 11.8989L10.9484 10.0928C10.9338 10.0818 10.9235 10.066 10.9192 10.0483C10.9149 10.0303 10.9172 10.0112 10.9257 9.99462C11.0572 9.78505 11.1805 9.59938 11.2972 9.42364C11.3369 9.36386 11.3758 9.30524 11.414 9.24721C11.8324 8.68805 12.1524 8.0621 12.3604 7.39607L12.3605 7.39608L12.3615 7.3924C12.625 6.46602 12.7091 5.47161 12.6359 4.58268C12.563 3.69745 12.3326 2.89903 11.9506 2.37761L11.9507 2.37758L11.9484 2.37469C11.9441 2.36904 11.9396 2.36324 11.935 2.3573C11.7762 2.1509 11.489 1.7776 10.9642 1.45513C10.4236 1.12289 9.64046 0.85 8.49898 0.85C7.3593 0.85 6.58714 1.10594 6.05476 1.42573C5.52685 1.74283 5.24541 2.11678 5.08105 2.33517L5.0772 2.34028L5.0772 2.34028L5.03435 2.39722C5.03431 2.39726 5.03428 2.39731 5.03424 2.39736C4.64706 2.9093 4.42043 3.70397 4.35212 4.58609C4.28349 5.47244 4.37307 6.46658 4.63645 7.3924L4.6364 7.39241L4.63754 7.39607C4.84564 8.06244 5.16587 8.68869 5.58456 9.24808C5.73328 9.46692 5.88943 9.70738 6.06717 9.99074C6.07197 9.99872 6.07514 10.0076 6.07653 10.0168C6.07794 10.0262 6.07745 10.0358 6.07509 10.045C6.07271 10.0543 6.06851 10.0629 6.06273 10.0705C6.05695 10.0781 6.04964 10.0845 6.04119 10.0894L6.04102 10.0895L2.897 11.899L2.89681 11.8992C2.3992 12.1865 1.97086 12.5792 1.64202 13.0495C1.31317 13.5198 1.09184 14.0563 0.993637 14.6212H0.993636L0.993557 14.6216L0.871518 15.3369L0.871422 15.3374C0.83429 15.5603 0.845528 15.7885 0.904372 16.0067C0.963216 16.2249 1.06831 16.4279 1.2125 16.6021L1.21247 16.6021L1.21489 16.6049C1.36278 16.7749 1.54537 16.9115 1.75042 17.0055C1.95547 17.0995 2.17827 17.1487 2.40393 17.15H2.40477H14.6076Z" fill="white" stroke="white" stroke-width="0.3"/>
</svg>
