<svg width="15" height="16" viewBox="0 0 15 16" fill="none" xmlns="http://www.w3.org/2000/svg">
<path d="M13.6076 16H1.40477C1.20039 15.9989 0.998607 15.9542 0.812922 15.8691C0.627237 15.784 0.461929 15.6604 0.328058 15.5065C0.197539 15.3488 0.102439 15.165 0.0491963 14.9676C-0.00404683 14.7702 -0.0142138 14.5637 0.0193825 14.3621L0.14142 13.6468C0.23585 13.1037 0.448689 12.5878 0.764948 12.1355C1.08121 11.6832 1.49318 11.3055 1.97183 11.029L5.11584 9.21949C5.14157 9.20472 5.16409 9.18499 5.18204 9.16142C5.2 9.13786 5.21302 9.11096 5.22038 9.0823C5.22774 9.05364 5.22926 9.02379 5.22487 8.99453C5.22048 8.96527 5.21027 8.9372 5.19481 8.91194C5.01536 8.62584 4.85743 8.38264 4.70669 8.16092C4.29719 7.61447 3.98408 7.00254 3.78073 6.35135C3.2639 4.53464 3.42899 2.44613 4.15398 1.48771L4.19705 1.43049C4.52006 1.00134 5.26659 0 7.49898 0C9.73137 0 10.521 1.06571 10.8296 1.46625C11.5474 2.44613 11.7341 4.53464 11.2172 6.35135C11.0139 7.00254 10.7007 7.61447 10.2913 8.16092C10.1405 8.3898 9.97544 8.63298 9.79598 8.91907C9.76815 8.96904 9.76007 9.02758 9.77335 9.08317C9.78664 9.13876 9.82031 9.18738 9.86775 9.21949L13.0261 11.029C13.5049 11.3036 13.9171 11.6798 14.2334 12.131C14.5498 12.5822 14.7625 13.0973 14.8565 13.6397L14.9786 14.3549C15.0143 14.5561 15.0053 14.7627 14.952 14.9601C14.8988 15.1574 14.8027 15.3407 14.6706 15.497C14.5384 15.6532 14.3734 15.7786 14.1873 15.8643C14.0011 15.95 13.7983 15.9939 13.5932 15.9928L13.6076 16ZM7.51333 0.715243C5.64702 0.715243 5.0656 1.48771 4.78566 1.85964L4.74259 1.92401C4.15398 2.68932 4.02477 4.58471 4.48417 6.15825C4.6701 6.73703 4.95151 7.28091 5.31683 7.76754C5.46757 7.98927 5.82647 8.56861 6.03464 8.96915C6.06774 9.0212 6.08979 9.07946 6.09939 9.14034C6.109 9.20121 6.10595 9.26342 6.09048 9.32308C6.075 9.38274 6.04743 9.43861 6.00943 9.48722C5.97142 9.53584 5.92382 9.57617 5.86956 9.60572L2.33792 11.6513C1.94669 11.8776 1.61056 12.1873 1.35367 12.5583C1.09677 12.9292 0.925467 13.3523 0.852046 13.797L0.73003 14.5123C0.714837 14.6106 0.720394 14.711 0.74635 14.8071C0.772305 14.9031 0.818082 14.9927 0.880764 15.0702C0.947228 15.1456 1.02888 15.2062 1.12039 15.2481C1.21191 15.29 1.31123 15.3122 1.41194 15.3134H13.6147C13.7154 15.3122 13.8148 15.29 13.9063 15.2481C13.9978 15.2062 14.0794 15.1456 14.1459 15.0702C14.2086 14.9927 14.2544 14.9031 14.2803 14.8071C14.3063 14.711 14.3118 14.6106 14.2966 14.5123L14.1746 13.797C14.1012 13.3523 13.9299 12.9292 13.673 12.5583C13.4161 12.1873 13.08 11.8776 12.6888 11.6513L9.33657 9.72016C9.18175 9.62258 9.07023 9.4697 9.02485 9.29285C8.97948 9.11599 9.00369 8.92853 9.09252 8.76888C9.31504 8.39695 9.58781 7.95351 9.71701 7.76754C10.0823 7.28091 10.3637 6.73703 10.5497 6.15825C10.9947 4.58471 10.8799 2.68932 10.2913 1.92401C9.99695 1.54493 9.36528 0.715243 7.51333 0.715243Z" fill="white"/>
</svg>
