<svg width="198" height="86" viewBox="0 0 198 86" fill="none" xmlns="http://www.w3.org/2000/svg">
<path d="M198 0H0V85.1312H198V0Z" fill="white"/>
<path d="M198 37.0341H0V85.1312H198V37.0341Z" fill="#CD1719"/>
<path d="M198 0H0V33.5804H198V0Z" fill="#7C7C7B"/>
<path fill-rule="evenodd" clip-rule="evenodd" d="M20.4824 71.1527C17.2835 71.1527 14.7442 70.1859 12.863 68.2524C10.9818 66.3189 10.042 63.5991 10.042 60.0948C10.042 56.7136 10.9851 54.0192 12.8697 52.0097C14.756 50.0002 17.2987 48.9947 20.4976 48.9947C21.3479 48.9947 22.1106 49.0436 22.7905 49.1381C23.4671 49.2343 24.1166 49.3675 24.7392 49.5396C25.2268 49.6831 25.7566 49.8788 26.3286 50.1268C26.9022 50.3748 27.3645 50.5891 27.7171 50.7713V55.8565H27.1722C26.914 55.6271 26.5901 55.3521 26.1986 55.0332C25.8072 54.7126 25.3618 54.4005 24.8658 54.0951C24.3697 53.7897 23.8214 53.5282 23.2258 53.3139C22.6285 53.0979 22.0059 52.9917 21.3564 52.9917C20.5819 52.9917 19.8733 53.1131 19.2288 53.3561C18.5843 53.6007 17.9702 54.0225 17.3881 54.6249C16.8532 55.1698 16.4162 55.9055 16.0771 56.8317C15.738 57.758 15.5693 58.8513 15.5693 60.1116C15.5693 61.4395 15.7464 62.5547 16.099 63.4557C16.4517 64.3583 16.9157 65.0855 17.4876 65.6406C18.041 66.1755 18.6602 66.5618 19.3419 66.8014C20.0252 67.041 20.7051 67.1591 21.3834 67.1591C22.0903 67.1591 22.7635 67.0427 23.403 66.8082C24.0424 66.5753 24.5823 66.3138 25.021 66.027C25.4985 65.7317 25.9186 65.4297 26.2813 65.1243C26.6441 64.8189 26.9596 64.5473 27.2262 64.3077H27.7121V69.3204C27.3206 69.5009 26.8668 69.7101 26.3522 69.943C25.8359 70.1775 25.3061 70.3749 24.7628 70.5369C24.0947 70.7377 23.4688 70.8895 22.8867 70.9958C22.3063 71.1004 21.5032 71.1527 20.4824 71.1527Z" fill="white"/>
<path fill-rule="evenodd" clip-rule="evenodd" d="M48.873 70.7377H43.5161V61.2843H36.2241V70.7377H30.8672V49.4081H36.2241V57.2147H43.5161V49.4081H48.873V70.7377Z" fill="white"/>
<path fill-rule="evenodd" clip-rule="evenodd" d="M53.2852 70.7377V49.4081H67.709V53.4759H58.6133V57.2147H66.992V61.2843H58.6133V66.6698H67.709V70.7377H53.2852Z" fill="white"/>
<path fill-rule="evenodd" clip-rule="evenodd" d="M85.5713 70.7377H71.333V49.4081H76.6899V66.6698H85.5713V70.7377Z" fill="white"/>
<path fill-rule="evenodd" clip-rule="evenodd" d="M110.839 60.0526C110.839 58.6489 110.598 57.4476 110.115 56.4504C109.633 55.4533 108.89 54.6721 107.888 54.1086C107.163 53.707 106.4 53.4877 105.604 53.4489C104.806 53.4118 103.854 53.3915 102.745 53.3915H102.646V66.7407H102.745C103.948 66.7407 104.964 66.7188 105.789 66.6766C106.616 66.6327 107.4 66.3779 108.146 65.9106C109.025 65.3572 109.693 64.5929 110.152 63.6194C110.609 62.6442 110.839 61.4547 110.839 60.0526ZM116.339 60.0948C116.339 62.0823 115.904 63.8606 115.035 65.4314C114.166 67.0022 113.068 68.2085 111.74 69.0471C110.631 69.7641 109.427 70.2248 108.123 70.4289C106.818 70.6347 105.431 70.7377 103.96 70.7377H97.2856V49.4081H103.903C105.403 49.4081 106.807 49.5042 108.114 49.6949C109.423 49.8855 110.65 50.3495 111.796 51.0851C113.199 51.9827 114.306 53.1924 115.119 54.716C115.934 56.2395 116.339 58.0313 116.339 60.0948Z" fill="white"/>
<path fill-rule="evenodd" clip-rule="evenodd" d="M138.199 70.7377H131.723L125.909 62.0705L124.863 63.5316V70.7377H119.506V49.4081H124.863V58.8766L131.681 49.4081H137.883L130.277 59.3069L138.199 70.7377Z" fill="white"/>
<path fill-rule="evenodd" clip-rule="evenodd" d="M160.2 55.9409C160.2 55.4061 160.097 54.9454 159.891 54.5591C159.685 54.1727 159.344 53.8741 158.867 53.6632C158.533 53.5198 158.16 53.4287 157.75 53.3915C157.34 53.3527 156.829 53.3342 156.218 53.3342H154.428V59.0774H155.96C156.704 59.0774 157.337 59.0319 157.858 58.9407C158.379 58.8496 158.821 58.6573 159.182 58.3603C159.527 58.0921 159.781 57.7732 159.95 57.4003C160.117 57.0291 160.2 56.5415 160.2 55.9409ZM168.823 70.7377H162.292L156.348 62.9175H154.428V70.7377H149.1V49.4081H157.679C158.863 49.4081 159.894 49.4823 160.773 49.6308C161.652 49.7792 162.464 50.0863 163.208 50.5537C163.972 51.0413 164.578 51.6588 165.027 52.4096C165.476 53.1587 165.7 54.112 165.7 55.266C165.7 56.8992 165.332 58.2237 164.597 59.2411C163.861 60.2585 162.879 61.0666 161.646 61.669L168.823 70.7377Z" fill="white"/>
<path fill-rule="evenodd" clip-rule="evenodd" d="M179.022 71.1814C176.157 71.1814 173.954 70.4896 172.412 69.1045C170.87 67.7209 170.099 65.6946 170.099 63.0305V49.4081H175.456V62.715C175.456 64.1947 175.734 65.2981 176.292 66.0236C176.851 66.7491 177.76 67.1119 179.022 67.1119C180.254 67.1119 181.158 66.7643 181.737 66.0658C182.314 65.369 182.604 64.2521 182.604 62.715V49.4081H187.961V63.0153C187.961 65.6406 187.209 67.6585 185.705 69.0673C184.2 70.4778 181.973 71.1814 179.022 71.1814Z" fill="white"/>
<path fill-rule="evenodd" clip-rule="evenodd" d="M93.5943 67.9217C93.5943 69.4756 92.334 70.736 90.7801 70.736C89.2262 70.736 87.9658 69.4756 87.9658 67.9217C87.9658 66.3678 89.2262 65.1075 90.7801 65.1075C92.334 65.1075 93.5943 66.3678 93.5943 67.9217Z" fill="white"/>
<path fill-rule="evenodd" clip-rule="evenodd" d="M145.403 67.9217C145.403 69.4756 144.143 70.736 142.589 70.736C141.035 70.736 139.774 69.4756 139.774 67.9217C139.774 66.3678 141.035 65.1075 142.589 65.1075C144.144 65.1075 145.403 66.3678 145.403 67.9217Z" fill="white"/>
<path fill-rule="evenodd" clip-rule="evenodd" d="M94.357 25.006H99.8708V29.0857H83.6787V25.006H89.5114V12.703C86.93 14.3918 85.7827 14.9976 84.2203 15.5408V11.4915C85.4317 11.0765 86.6752 10.5028 87.8545 9.80266C88.9377 9.13284 89.8303 8.43265 90.6907 7.22124H94.357V25.006Z" fill="white"/>
<path fill-rule="evenodd" clip-rule="evenodd" d="M117.849 11.2368H108.064L107.713 16.0183C108.605 15.1899 109.975 14.3615 112.111 14.3615C114.438 14.3615 116.064 15.1578 117.115 16.1145C118.487 17.358 119.506 19.2375 119.506 21.6283C119.506 23.8908 118.614 25.6759 117.434 26.8873C116.255 28.1307 114.119 29.4046 110.9 29.4046C107.681 29.4046 105.609 28.097 104.397 26.8873C103.091 25.5797 102.644 24.2417 102.454 23.3813L106.788 22.649C106.948 23.3188 107.298 23.8925 107.681 24.3058C108.477 25.1984 109.53 25.5814 110.773 25.5814C112.239 25.5814 113.036 25.0718 113.579 24.4982C114.281 23.7339 114.63 22.7772 114.63 21.8527C114.63 21.0242 114.375 19.9714 113.483 19.143C112.719 18.4411 111.856 18.1864 110.933 18.1864C109.435 18.1864 108.16 18.8562 107.363 20.0676L103.474 19.4619L104.335 7.22124H118.296L117.849 11.2368Z" fill="white"/>
<path fill-rule="evenodd" clip-rule="evenodd" d="M42.074 18.0379V22.18H45.5665V18.0379H48.7975V29.1009H45.5665V24.4577H42.074V29.1009H38.8413V18.0379H42.074Z" fill="white"/>
<path fill-rule="evenodd" clip-rule="evenodd" d="M57.4309 23.8722C56.346 23.96 55.2628 24.0679 54.6537 24.8272C54.48 25.0448 54.3062 25.3688 54.3062 25.8243C54.3062 26.3018 54.5441 26.6274 54.7837 26.8012C55.0874 27.0408 55.5429 27.1488 55.9765 27.1488C56.6278 27.1488 57.3853 26.867 57.8206 26.3457C57.8864 26.2799 58.4061 25.6303 58.4061 24.3716V23.7862L57.4309 23.8722ZM51.2928 21.117C51.6404 19.6205 52.6156 18.8612 53.2027 18.5137C54.07 18.0143 55.2206 17.8202 56.6514 17.8202C58.4736 17.8202 60.3177 18.0598 61.141 19.7723C61.5746 20.6615 61.5325 21.6164 61.5325 22.4398V26.7135C61.5325 27.6026 61.6624 28.4277 61.8581 29.0992H58.7132C58.6271 28.6656 58.5613 28.0801 58.5394 27.3428C58.1277 28.0801 57.1289 29.3168 54.8292 29.3168C53.8101 29.3168 52.7675 29.057 52.0521 28.4715C51.3586 27.908 50.9233 26.9969 50.9233 25.9981C50.9233 24.8913 51.4008 23.5685 53.2888 22.7874C54.5036 22.2896 56.4776 22.1159 57.3668 22.072L58.4078 22.0281V21.7902C58.4078 21.4865 58.3858 20.8353 58.0821 20.4877C57.6705 20.0102 56.8454 19.9883 56.5215 19.9883C56.0659 19.9883 55.5227 20.0322 55.0671 20.3139C54.7853 20.4877 54.4158 20.8353 54.2859 21.441L51.2928 21.117Z" fill="white"/>
<path fill-rule="evenodd" clip-rule="evenodd" d="M68.5377 18.0379L70.9234 24.8491L73.245 18.0379H77.3888V29.1009H74.4378V21.7902C74.4378 21.3988 74.4598 21.2689 74.4817 21.0748C74.5037 20.9011 74.5256 20.7492 74.5256 20.4455C74.178 21.3347 74.07 21.5743 74.0059 21.7683L71.5983 29.1009H69.7542L67.1947 21.7683C67.0867 21.4865 67.0867 21.3127 66.7172 20.4455C66.7611 21.4005 66.783 21.5743 66.783 21.7464V29.0992H64.3096V18.0362H68.5377V18.0379Z" fill="white"/>
<path fill-rule="evenodd" clip-rule="evenodd" d="M135.606 18.0379V29.1194H132.368V20.319H130.087C129.957 23.5129 129.935 26.2512 128.848 27.7494C128.263 28.5542 127.24 29.2055 125.938 29.2055C125.656 29.2055 125.395 29.1835 125.113 29.1194V26.7945H125.374C125.786 26.7725 126.417 26.6207 126.83 25.8817C127.178 25.2726 127.352 24.2738 127.46 21.8628C127.504 20.7982 127.547 20.2768 127.547 18.8646V18.0379H135.606Z" fill="white"/>
<path fill-rule="evenodd" clip-rule="evenodd" d="M145.427 22.3824C145.449 21.8611 145.297 21.252 144.993 20.8184C144.689 20.405 144.188 19.9933 143.341 19.9933C142.668 19.9933 142.081 20.2768 141.69 20.6885C141.32 21.0799 141.081 21.7092 141.081 22.3824H145.427ZM148.643 25.7298C148.273 27.0762 147.47 27.881 146.817 28.3366C145.948 28.9456 144.754 29.3354 143.276 29.3354C141.45 29.3354 140.104 28.6183 139.277 27.7933C138.516 27.0324 137.691 25.686 137.691 23.6006C137.691 21.1676 138.777 19.7976 139.646 19.0603C140.929 17.9738 142.319 17.8219 143.297 17.8219C145.405 17.8219 146.731 18.7786 147.468 19.6677C148.141 20.4725 148.751 21.797 148.751 23.6664V24.2316H141.081C141.059 24.8407 141.19 25.5139 141.45 25.9914C141.776 26.6207 142.383 27.164 143.427 27.164C144.232 27.164 144.754 26.8383 145.057 26.5346C145.319 26.2731 145.514 25.8834 145.601 25.4481L148.643 25.7298Z" fill="white"/>
<path fill-rule="evenodd" clip-rule="evenodd" d="M159.16 18.0379V20.319H155.987V29.1194H152.751V20.319H149.577V18.0379H159.16Z" fill="white"/>
</svg>
