<svg width="929" height="218" viewBox="0 0 929 218" fill="none" xmlns="http://www.w3.org/2000/svg">
<g>
<path fill-rule="evenodd" clip-rule="evenodd" d="M96.3776 154.868C81.3258 154.868 69.3781 150.496 60.5264 141.752C51.6748 133.007 47.2529 120.707 47.2529 104.859C47.2529 89.568 51.6907 77.3824 60.5582 68.2947C69.4337 59.207 81.3973 54.6593 96.449 54.6593C100.45 54.6593 104.038 54.8806 107.238 55.3079C110.421 55.7428 113.478 56.3456 116.407 57.1239C118.701 57.7725 121.194 58.6576 123.885 59.7792C126.584 60.9009 128.76 61.87 130.419 62.694V85.6918H127.855C126.64 84.6541 125.116 83.4103 123.274 81.9682C121.432 80.5184 119.336 79.1068 117.002 77.7257C114.668 76.3447 112.088 75.1619 109.286 74.1929C106.476 73.2162 103.546 72.7355 100.49 72.7355C96.846 72.7355 93.5117 73.2849 90.4791 74.3837C87.4466 75.4901 84.5569 77.3976 81.818 80.1217C79.3015 82.5863 77.2453 85.9131 75.6497 90.1021C74.054 94.2912 73.2601 99.2356 73.2601 104.935C73.2601 110.941 74.0937 115.984 75.7529 120.059C77.412 124.141 79.5952 127.43 82.2864 129.94C84.8903 132.359 87.8038 134.106 91.011 135.19C94.2262 136.273 97.4255 136.807 100.617 136.807C103.943 136.807 107.111 136.281 110.119 135.22C113.128 134.167 115.669 132.985 117.733 131.687C119.979 130.352 121.956 128.986 123.663 127.605C125.37 126.224 126.854 124.996 128.109 123.912H130.395V146.582C128.553 147.398 126.418 148.344 123.996 149.397C121.567 150.458 119.074 151.351 116.518 152.083C113.374 152.991 110.429 153.678 107.69 154.159C104.959 154.632 101.181 154.868 96.3776 154.868Z" fill="white"/>
<path fill-rule="evenodd" clip-rule="evenodd" d="M229.651 153.046H204.346V110.248H169.9V153.046H144.595V56.4814H169.9V91.8244H204.346V56.4814H229.651V153.046Z" fill="white"/>
<path fill-rule="evenodd" clip-rule="evenodd" d="M250.443 153.046V56.4814H317.543V74.8977H275.229V91.8244H314.207V110.248H275.229V134.63H317.543V153.046H250.443Z" fill="white"/>
<path fill-rule="evenodd" clip-rule="evenodd" d="M401.654 153.046H334.554V56.4814H359.799V134.63H401.654V153.046Z" fill="white"/>
<path fill-rule="evenodd" clip-rule="evenodd" d="M520.331 104.672C520.331 98.3171 519.194 92.8785 516.92 88.3642C514.647 83.8499 511.149 80.3133 506.426 77.7621C503.008 75.9442 499.414 74.9512 495.662 74.7755C491.901 74.6074 487.417 74.5158 482.194 74.5158H481.725V134.951H482.194C487.862 134.951 492.649 134.852 496.536 134.661C500.432 134.462 504.129 133.309 507.643 131.193C511.785 128.687 514.933 125.227 517.095 120.82C519.25 116.405 520.331 111.02 520.331 104.672ZM546.249 104.863C546.249 113.861 544.197 121.912 540.103 129.024C536.009 136.135 530.833 141.596 524.576 145.393C519.353 148.639 513.677 150.724 507.531 151.649C501.386 152.58 494.851 153.046 487.918 153.046H456.467V56.4814H487.648C494.716 56.4814 501.33 56.9168 507.491 57.78C513.661 58.6431 519.441 60.7437 524.839 64.074C531.453 68.1377 536.669 73.6144 540.501 80.5119C544.341 87.4094 546.249 95.5214 546.249 104.863Z" fill="white"/>
<path fill-rule="evenodd" clip-rule="evenodd" d="M648.315 153.046H617.868L590.531 113.808L585.612 120.423V153.046H560.424V56.4814H585.612V99.3483L617.67 56.4814H646.832L611.069 101.296L648.315 153.046Z" fill="white"/>
<path fill-rule="evenodd" clip-rule="evenodd" d="M751.472 86.0574C751.472 83.6361 750.989 81.5508 750.022 79.8016C749.056 78.0524 747.455 76.7004 745.213 75.7456C743.644 75.0963 741.894 74.6838 739.968 74.5158C738.043 74.3401 735.643 74.2561 732.775 74.2561H724.369V100.257H731.562C735.056 100.257 738.027 100.051 740.475 99.6386C742.924 99.2261 744.999 98.3553 746.695 97.0109C748.311 95.7964 749.507 94.3528 750.3 92.6647C751.084 90.9842 751.472 88.7767 751.472 86.0574ZM791.965 153.046H761.296L733.385 117.642H724.369V153.046H699.349V56.4814H739.636C745.197 56.4814 750.038 56.8175 754.166 57.4897C758.294 58.1619 762.104 59.5521 765.598 61.6679C769.187 63.8754 772.032 66.6711 774.139 70.0702C776.246 73.4617 777.3 77.7774 777.3 83.0021C777.3 90.3961 775.573 96.3922 772.119 100.998C768.664 105.604 764.053 109.263 758.262 111.99L791.965 153.046Z" fill="white"/>
<path fill-rule="evenodd" clip-rule="evenodd" d="M840.129 154.868C826.79 154.868 816.531 151.743 809.351 145.483C802.171 139.232 798.581 130.075 798.581 118.037V56.4814H823.522V116.611C823.522 123.298 824.818 128.284 827.418 131.562C830.019 134.84 834.253 136.479 840.129 136.479C845.863 136.479 850.074 134.909 852.768 131.753C855.455 128.604 856.806 123.557 856.806 116.611V56.4814H881.747V117.969C881.747 129.831 878.243 138.95 871.244 145.316C864.237 151.689 853.868 154.868 840.129 154.868Z" fill="white"/>
<path fill-rule="evenodd" clip-rule="evenodd" d="M439.456 140.293C439.456 147.335 433.531 153.046 426.225 153.046C418.919 153.046 412.994 147.335 412.994 140.293C412.994 133.25 418.919 127.539 426.225 127.539C433.531 127.539 439.456 133.25 439.456 140.293Z" fill="white"/>
<path fill-rule="evenodd" clip-rule="evenodd" d="M682.338 140.293C682.338 147.335 676.412 153.046 669.107 153.046C661.801 153.046 655.876 147.335 655.876 140.293C655.876 133.25 661.801 127.539 669.107 127.539C676.42 127.539 682.338 133.25 682.338 140.293Z" fill="white"/>
</g>
</svg>
